<?xml version="1.0" encoding="utf-8"?>
<!-- Generator: Adobe Illustrator 22.1.0, SVG Export Plug-In . SVG Version: 6.00 Build 0)  -->
<svg version="1.1" id="Capa_1" xmlns="http://www.w3.org/2000/svg" xmlns:xlink="http://www.w3.org/1999/xlink" x="0px" y="0px"
	 viewBox="0 0 512 512" style="enable-background:new 0 0 512 512;" xml:space="preserve">
<style type="text/css">
	.st0{fill:#f3f3f3;}
	.st1{fill:#00000021;}
	.st2{fill:#FFFFFF;}
	.st3{fill: #EBEEF0;}
	.st4{fill: #dce6d34f;}
	.st5{fill: #4e54c8;}
	.st6{font-family:'Arial';font-weight:700;}
	.st7{font-size:20px;}
</style>
<g>
	<circle class="st0" cx="256" cy="256" r="256"/>
	<path class="st1" d="M510.9,279.9L373.8,142.8L138.3,421.5l88.9,88.9c9.5,1.1,19.1,1.6,28.9,1.6C389.3,512,498.8,410.1,510.9,279.9
		z"/>
	<polygon class="st2" points="321.5,90.5 138.3,90.5 138.3,421.5 373.8,421.5 373.8,142.8 	"/>
	<polygon class="st3" points="373.8,142.8 321.5,90.5 256,90.5 256,421.5 373.8,421.5 	"/>
	<rect x="167.8" y="302.6" class="st4" width="176.5" height="11.4"/>
	<rect x="255.9" y="302.6" class="st5" width="88.3" height="11.4"/>
	<rect x="167.8" y="334.9" class="st4" width="176.5" height="11.4"/>
	<rect x="167.8" y="243.1" class="st4" width="176.5" height="11.4"/>
	<rect x="255.9" y="334.9" class="st5" width="88.3" height="11.4"/>
	<rect x="167.8" y="367.3" class="st4" width="176.5" height="11.4"/>
	<g>
		<rect x="255.9" y="367.3" class="st5" width="88.3" height="11.4"/>
		<polygon class="st5" points="321.5,142.8 373.8,142.8 321.5,90.5 		"/>
	</g>
	<rect x="167.8" y="210.7" class="st4" width="176.5" height="11.4"/>
	<rect x="255.9" y="243.1" class="st5" width="88.3" height="11.4"/>
	<rect x="255.9" y="210.7" class="st5" width="88.3" height="11.4"/>
	<rect x="167.8" y="275.5" class="st4" width="176.5" height="11.4"/>
	<text transform="matrix(1 0 0 1 189 174)" class="st6 st7">CUESTIONARIO</text>
	<rect x="255.9" y="275.5" class="st5" width="88.3" height="11.4"/>
</g>
</svg>
