<?xml version="1.0" encoding="utf-8"?>
<!-- Generator: Adobe Illustrator 22.1.0, SVG Export Plug-In . SVG Version: 6.00 Build 0)  -->
<svg version="1.1" id="Capa_1" xmlns="http://www.w3.org/2000/svg" xmlns:xlink="http://www.w3.org/1999/xlink" x="0px" y="0px"
	 viewBox="0 0 512 512" style="enable-background:new 0 0 512 512;" xml:space="preserve">
<style type="text/css">
	.st0{fill:white;}
	.st1{fill:#00000021;}
	.st2{fill:#464545e0;}
	.st3{fill:#1b1a1ae0;}
	.st4{fill:#4e54c8;}
	.st5{fill:#4348a9;}
	.st6{fill:#6a6ebf;}
	.st7{fill:#7276c5;}
</style>
<circle class="st0" cx="256" cy="256" r="256"/>
<path class="st1" d="M512,256c0-16-1.5-31.6-4.3-46.8L410,111.5l1.8,18.6l-60.6,66.6L250,95.5l3.1,23.2l-28.1,1.8l102.4,102.4l0,0
	l0,0l0,0L137.6,412.7l98.5,98.5c6.6,0.5,13.2,0.8,19.9,0.8C397.4,512,512,397.4,512,256z"/>
<path class="st2" d="M250,95.5l3.7,10.7c1.7,5,5.6,8.9,10.7,10.7l10.7,3.7l-10.7,3.7c-5,1.7-8.9,5.6-10.7,10.7l-3.7,10.7l-3.7-10.7
	c-1.7-5-5.6-8.9-10.7-10.7l-10.7-3.7l10.7-3.7c5-1.7,8.9-5.6,10.7-10.7L250,95.5z"/>
<path class="st3" d="M387.7,216.8l5.5,16c2.6,7.5,8.4,13.4,15.9,15.9l16,5.5l-16,5.5c-7.5,2.6-13.4,8.4-15.9,15.9l-5.5,16l-5.5-16
	c-2.6-7.5-8.4-13.4-15.9-15.9l-16-5.5l16-5.5c7.5-2.6,13.4-8.4,15.9-15.9L387.7,216.8z"/>
<path class="st3" d="M302.6,299.8l5.5,16c2.6,7.5,8.4,13.4,15.9,15.9l16,5.5l-16,5.5c-7.5,2.6-13.4,8.4-15.9,15.9l-5.5,16l-5.5-16
	c-2.6-7.5-8.4-13.4-15.9-15.9l-16-5.5l16-5.5c7.5-2.6,13.4-8.4,15.9-15.9L302.6,299.8z"/>
<path class="st3" d="M208.7,145.5l5.5,16c2.6,7.5,8.4,13.4,15.9,15.9l16,5.5l-16,5.5c-7.5,2.6-13.4,8.4-15.9,15.9l-5.5,16l-5.5-16
	c-2.6-7.5-8.4-13.4-15.9-15.9l-16-5.5l16-5.5c7.5-2.6,13.4-8.4,15.9-15.9L208.7,145.5z"/>
<rect x="60.8" y="227.5" transform="matrix(0.7071 -0.7071 0.7071 0.7071 -105.4492 255.7534)" class="st4" width="390.3" height="55.3"/>
<rect x="70.4" y="250.7" transform="matrix(0.7071 -0.7071 0.7071 0.7071 -109.4231 265.3437)" class="st5" width="390.3" height="28.2"/>
<rect x="307.2" y="125.4" transform="matrix(0.7071 -0.7071 0.7071 0.7071 -3.3876 298.0316)" class="st6" width="101.7" height="55.3"/>
<rect x="316.8" y="148.6" transform="matrix(0.7071 -0.7071 0.7071 0.7071 -7.3615 307.6218)" class="st7" width="101.7" height="28.2"/>
<path class="st3" d="M410,111.5l3.7,10.7c1.7,5,5.6,8.9,10.7,10.7l10.7,3.7l-10.7,3.7c-5,1.7-8.9,5.6-10.7,10.7l-3.7,10.7l-3.7-10.7
	c-1.7-5-5.6-8.9-10.7-10.7l-10.7-3.7l10.7-3.7c5-1.7,8.9-5.6,10.7-10.7L410,111.5z"/>
</svg>
