<?xml version="1.0"?>
<svg xmlns="http://www.w3.org/2000/svg" height="512px" viewBox="-48 0 479 479.96234" width="512px" class=""><g transform="matrix(1 -4.89859e-16 4.89859e-16 1 -1.98952e-13 1.42109e-13)"><path d="m372.378906 213.296875c-7.636718-5.925781-17.597656-7.960937-26.945312-5.503906l-33.777344 8.800781c-23.351562 6.082031-47.140625 10.359375-71.152344 12.792969v-.625c.347656-26.464844 9.742188-52.015625 26.617188-72.40625 31.941406-39.507813 27.570312-97.058594-9.96875-131.289063-37.535156-34.230468-95.246094-33.292968-131.648438 2.144532s-38.894531 93.097656-5.6875 131.542968c16.421875 19.804688 25.183594 44.847656 24.6875 70.570313v.0625c-24.007812-2.4375-47.796875-6.71875-71.148437-12.800781l-33.777344-8.800782c-16.6875-4.347656-33.742187 5.65625-38.089844 22.34375-4.347656 16.6875 5.65625 33.742188 22.34375 38.089844l45.601563 11.886719c14.234375 3.734375 28.59375 6.777343 43.070312 9.128906v14.726563h-8c-39.746094.046874-71.953125 32.253906-72 72v32c0 41.210937 42.234375 72 80 72h168c39.75-.042969 71.957032-32.253907 72-72v-32c-.042968-39.746094-32.25-71.953126-72-72h-8v-14.703126c14.546875-2.410156 28.976563-5.46875 43.296875-9.175781l45.386719-11.847656c11.515625-3.015625 20.320312-12.316406 22.699219-23.980469 2.378906-11.667968-2.082031-23.671875-11.5-30.957031zm-240.449218-65.03125c-27.765626-32.0625-25.722657-80.210937 4.660156-109.808594 30.382812-29.59375 78.570312-30.371093 109.894531-1.773437 31.320313 28.597656 34.921875 76.65625 8.207031 109.597656-19.1875 23.242188-29.839844 52.347656-30.1875 82.480469v1.992187c-21.308594 1.441406-42.6875 1.441406-64 0v-1.429687c.503906-29.574219-9.636718-58.339844-28.574218-81.058594zm139.777343 203.695313h8.796875c13.257813 0 24 10.746093 24 24v32c0 13.257812-10.742187 24-24 24h-176c-13.253906 0-24-10.742188-24-24v-32c0-13.253907 10.746094-24 24-24h8.800782c3.828124 18.613281 20.199218 31.976562 39.199218 32h80c19.003906-.023438 35.375-13.386719 39.203125-32zm8.796875-32c30.914063.035156 55.964844 25.089843 56 56v32c-.035156 30.914062-25.085937 55.964843-56 56h-168c-29.597656 0-64-24.460938-64-56v-32c.039063-30.910157 25.089844-55.964844 56-56h8v16h-8c-22.078125.027343-39.972656 17.921874-40 40v32c.027344 22.082031 17.921875 39.976562 40 40h176c22.082032-.023438 39.976563-17.917969 40-40v-32c-.023437-22.078126-17.917968-39.972657-40-40h-8v-16zm-24 24c0 13.257812-10.742187 24-24 24h-80c-13.253906 0-24-10.742188-24-24v-52.328126c21.234375 2.8125 42.625 4.222657 64.042969 4.226563 21.386719-.011719 42.753906-1.417969 63.957031-4.21875zm100.632813-91.199219-45.382813 11.847656c-78.125 20.34375-160.160156 20.34375-238.289062 0l-45.597656-11.878906c-8.136719-2.117188-13.015626-10.433594-10.898438-18.566407 2.121094-8.136718 10.433594-13.015624 18.570312-10.898437l33.773438 8.800781c27.175781 7.058594 54.90625 11.753906 82.890625 14.039063.101563 0 .191406.066406.292969.066406h.128906c26.539062 2.160156 53.207031 2.160156 79.746094 0h.125c.105468 0 .195312-.058594.296875-.066406 27.988281-2.273438 55.730469-6.957031 82.914062-14.007813l33.78125-8.800781c8.136719-2.117187 16.449219 2.761719 18.570313 10.898437 2.117187 8.136719-2.761719 16.449219-10.898438 18.566407zm0 0" data-original="#000000" class="active-path" data-old_color="##77777" fill="#777777"/><path d="m216.503906 359.960938h8c13.257813 0 24-10.742188 24-24v-8c0-4.417969-3.578125-8-8-8-4.417968 0-8 3.582031-8 8v8c0 4.417968-3.578125 8-8 8h-8c-4.417968 0-8 3.582031-8 8 0 4.417968 3.582032 8 8 8zm0 0" data-original="#000000" class="active-path" data-old_color="##77777" fill="#777777"/></g> </svg>
