<?xml version="1.0"?>
<svg xmlns="http://www.w3.org/2000/svg" height="512px" viewBox="-48 0 464 464.02304" width="512px" class=""><g><path d="m224.011719 230.230469v-9.40625c.300781-28.308594 10.328125-55.652344 28.398437-77.441407 29.285156-36.207031 25.292969-88.960937-9.109375-120.347656-34.398437-31.382812-87.296875-30.539062-120.671875 1.933594-33.378906 32.46875-35.683594 85.324219-5.257812 120.574219 17.679687 21.273437 27.132812 48.183593 26.640625 75.839843v8.847657c26.621093 2.222656 53.378906 2.222656 80 0zm0 0" fill="#ea348b" data-original="#EA348B" class="" style="fill:#835CE0" data-old_color="#5300FF"/><path d="m141.371094 145.542969c17.679687 21.273437 27.132812 48.183593 26.640625 75.839843v10.238282c-8-.238282-16-.71875-24-1.359375v-8.878907c.492187-27.65625-8.960938-54.566406-26.640625-75.839843-23.6875-27.472657-28.101563-66.660157-11.117188-98.714844 16.980469-32.054687 51.882813-50.414063 87.917969-46.246094.621094.0625 1.234375.167969 1.839844.320313-31.941407 4.402344-58.917969 25.917968-70.3125 56.078125-11.394531 30.164062-5.382813 64.144531 15.671875 88.5625zm0 0" fill="#e4187a" data-original="#E4187A" class="" style="fill:#8753E6" data-old_color="#5B00FF"/><path d="m32.011719 368.023438v32c0 35.359374 36.640625 64 72 64h168c35.347656 0 64-28.652344 64-64v-32c0-35.347657-28.652344-64-64-64h-16v32h16c17.671875 0 32 14.328124 32 32v32c0 17.671874-14.328125 32-32 32h-176c-17.671875 0-32-14.328126-32-32v-32c0-17.671876 14.328125-32 32-32h16v-32h-16c-35.347657 0-64 28.652343-64 64zm0 0" fill="#ed539d" data-original="#ED539D" class="active-path" style="fill:#8D09FF" data-old_color="#8D0BFC"/><path d="m17.355469 252.542969 45.601562 11.886719c16.164063 4.199218 32.539063 7.550781 49.054688 10.042968 64.441406 9.796875 130.199219 6.371094 193.273437-10.074218l45.382813-11.847657c10.214843-2.664062 17.34375-11.890625 17.34375-22.449219v-.046874c.003906-7.1875-3.328125-13.96875-9.011719-18.363282-5.6875-4.394531-13.089844-5.90625-20.042969-4.09375l-33.785156 8.800782c-26.605469 6.929687-53.761719 11.558593-81.160156 13.832031-26.621094 2.222656-53.378907 2.222656-80 0-27.398438-2.269531-54.554688-6.890625-81.160157-13.816407l-33.785156-8.800781c-6.949218-1.8125-14.351562-.300781-20.035156 4.089844-5.6875 4.390625-9.015625 11.167969-9.0195312 18.351563-.0195313 10.574218 7.1132812 19.820312 17.3437502 22.488281zm0 0" fill="#2488ff" data-original="#2488FF" class="" style="fill:#61636C" data-old_color="#464D55"/><path d="m112.011719 274.472656v61.550782c0 17.671874 14.328125 32 32 32h80c17.671875 0 32-14.328126 32-32v-61.519532h-.128907c-47.6875 7.214844-96.1875 7.207032-143.871093-.03125zm0 0" fill="#f7afd1" data-original="#F7AFD1" class=""/><path d="m160.011719 368.023438h-16c-17.671875 0-32-14.328126-32-32v-61.519532c5.359375.800782 10.640625 1.519532 16 2.078125v59.441407c0 17.671874 14.328125 32 32 32zm0 0" fill="#f490c0" data-original="#F490C0"/><path d="m208.011719 352.023438h8c13.253906 0 24-10.746094 24-24v-8c0-4.417969-3.582031-8-8-8s-8 3.582031-8 8v8c0 4.417968-3.582031 8-8 8h-8c-4.417969 0-8 3.582031-8 8 0 4.417968 3.582031 8 8 8zm0 0" fill="#f1f2f2" data-original="#F1F2F2" class="" style="fill:#F1F2F2"/></g> </svg>
