<svg xmlns="http://www.w3.org/2000/svg" version="1.1" xmlns:xlink="http://www.w3.org/1999/xlink" xmlns:svgjs="http://svgjs.dev/svgjs" width="460" height="160" preserveAspectRatio="none" viewBox="0 0 460 160">
    <g mask="url(&quot;#SvgjsMask1099&quot;)" fill="none">
        <rect width="460" height="160" x="0" y="0" fill="rgba(210, 55, 65, 1)"></rect>
        <path d="M0,108.505C23.433,108.176,48,117.824,68.868,107.161C90.296,96.212,103.466,73.657,112.132,51.209C120.482,29.581,124.894,4.913,116.717,-16.781C109.026,-37.186,86.817,-46.781,69.977,-60.635C56.103,-72.048,43.174,-83.742,26.677,-90.855C8.341,-98.761,-11.223,-109.072,-30.528,-103.969C-49.931,-98.84,-60.048,-78.536,-74.107,-64.214C-89.232,-48.805,-114.156,-38.201,-116.187,-16.705C-118.229,4.908,-91.254,17.88,-83.791,38.266C-75.351,61.319,-88.937,93.344,-70.124,109.115C-51.84,124.442,-23.857,108.84,0,108.505" fill="#c32c36"></path>
        <path d="M460 274.866C481.63 273.85 500.364 262.60699999999997 519.778 253.01600000000002 541.687 242.19299999999998 573.637 238.534 580.825 215.179 588.242 191.083 558.889 171.089 552.501 146.7 547.148 126.263 559.8050000000001 101.445 546.696 84.878 533.593 68.318 508.54200000000003 69.417 487.884 65.037 468.793 60.989000000000004 449.884 56.592 430.722 60.288 410.249 64.237 387.861 69.981 375.43600000000004 86.725 363.171 103.25399999999999 370.35 126.331 366.687 146.584 362.841 167.85 347.829 187.805 353.378 208.692 359.153 230.43200000000002 377.38800000000003 246.946 396.5 258.808 415.43399999999997 270.55899999999997 437.741 275.91200000000003 460 274.866" fill="#d74d56"></path>
    </g>
    <defs>
        <mask id="SvgjsMask1099">
            <rect width="460" height="160" fill="#ffffff"></rect>
        </mask>
    </defs>
</svg>