<?xml version="1.0" encoding="utf-8"?>
<!-- Generator: Adobe Illustrator 22.1.0, SVG Export Plug-In . SVG Version: 6.00 Build 0)  -->
<svg version="1.1" id="Capa_1" xmlns="http://www.w3.org/2000/svg" xmlns:xlink="http://www.w3.org/1999/xlink" x="0px" y="0px"
	 viewBox="0 0 512 512" style="enable-background:new 0 0 512 512;" xml:space="preserve">
<style type="text/css">
	.st0{fill:#f3f3f3;}
	.st1{fill:#ffff;}
	.st2{fill:#00000033;}
	.st3{fill:#4e54c8;}
	.st4{fill:#00000036;}
	.st5{fill:#aaaeb3e6;}
	.st6{fill:#bec3d242;}
</style>
<circle class="st0" cx="256" cy="256" r="256"/>
<g>
	<path class="st1" d="M375.7,107.5H129.3c-14.5,0-26.3,11.7-26.3,26.3v246.4c0,14.5,11.7,26.3,26.3,26.3h246.4
		c14.5,0,26.3-11.7,26.3-26.3V133.8C402,119.2,390.3,107.5,375.7,107.5z"/>
	<path class="st2" d="M402,133.8v246.4c0,14.5-11.7,26.3-26.3,26.3H252.5v-299h123.2C390.3,107.5,402,119.2,402,133.8z"/>
	<path class="st3" d="M375.7,125H129.3c-4.9,0-8.8,3.9-8.8,8.8v246.4c0,4.9,3.9,8.8,8.8,8.8h246.4c4.9,0,8.8-3.9,8.8-8.8V133.8
		C384.5,128.9,380.6,125,375.7,125z"/>
	<path class="st4" d="M384.5,133.8v246.4c0,4.9-3.9,8.8-8.8,8.8H252.5V125h123.2C380.6,125,384.5,128.9,384.5,133.8z"/>
	<path class="st1" d="M330.1,243.9l-68.9,120.5v-82.7c10.2-3.7,17.5-13.3,17.5-24.7c0-14.5-11.7-26.3-26.3-26.3
		c-14.5,0-26.3,11.7-26.3,26.3c0,11.4,7.4,21,17.5,24.7v82.7l-68.9-120.5c-2.1-3.5-1.4-7.7,1.4-10.5c20.8-21,32.4-49.5,32.4-79.1v-3
		c0-4.9,3.9-8.8,8.8-8.8h70.1c4.9,0,8.8,3.9,8.8,8.8v3c0,29.6,11.6,58,32.4,79.1C331.5,236.2,332.2,240.4,330.1,243.9z"/>
	<path class="st5" d="M363.2,281.2l-105.1,87.6c-1.6,1.4-3.7,2.1-5.6,2.1c-1.9,0-4-0.7-5.6-2.1l-105.1-87.6c-3.7-3-4.2-8.6-1.1-12.3
		c3-3.7,8.6-4.2,12.3-1.1l99.5,82.9l99.5-82.9c3.7-3.2,9.3-2.6,12.3,1.1C367.4,272.6,366.9,278.2,363.2,281.2z"/>
	<path class="st2" d="M330.1,243.9l-68.9,120.5v-82.7c10.2-3.7,17.5-13.3,17.5-24.7c0-14.5-11.7-26.3-26.3-26.3v-88.2h35
		c4.9,0,8.8,3.9,8.8,8.8v3c0,29.6,11.6,58,32.4,79.1C331.5,236.2,332.2,240.4,330.1,243.9z"/>
	<path class="st6" d="M363.2,281.2l-105.1,87.6c-1.6,1.4-3.7,2.1-5.6,2.1v-20.1l99.5-82.9c3.7-3.2,9.3-2.6,12.3,1.1
		C367.4,272.6,366.9,278.2,363.2,281.2z"/>
</g>
</svg>
